<?xml version="1.0" encoding="utf-8"?>
<!-- Generator: Adobe Illustrator 17.0.2, SVG Export Plug-In . SVG Version: 6.00 Build 0)  -->
<!DOCTYPE svg PUBLIC "-//W3C//DTD SVG 1.1//EN" "http://www.w3.org/Graphics/SVG/1.1/DTD/svg11.dtd">
<svg version="1.1" xmlns="http://www.w3.org/2000/svg" xmlns:xlink="http://www.w3.org/1999/xlink" x="0px" y="0px" width="25px"
	 height="25px" viewBox="0 0 25 25" enable-background="new 0 0 25 25" xml:space="preserve">
<g id="Layer_1">
	<g>
		<g>
			<path fill="#EA4C89" d="M22.003,0H2.99C1.342,0,0,1.339,0,2.985v19.024c0,1.646,1.342,2.985,2.99,2.985h19.012
				c1.649,0,2.99-1.339,2.99-2.985V2.985C24.993,1.339,23.651,0,22.003,0z M23.985,22.009c0,1.092-0.89,1.98-1.983,1.98H2.99
				c-1.093,0-1.983-0.888-1.983-1.98L1.001,7.5h23L23.985,22.009z M1.001,6.5l0.006-3.515c0-1.091,0.89-1.98,1.983-1.98h19.012
				c1.093,0,1.983,0.888,1.983,1.98L24.001,6.5H1.001z M7.349,2.464c-0.706,0-1.277,0.571-1.277,1.275
				c0,0.704,0.571,1.274,1.277,1.274c0.706,0,1.277-0.57,1.277-1.274C8.626,3.035,8.055,2.464,7.349,2.464z M7.349,4.008
				c-0.149,0-0.27-0.12-0.27-0.269c0-0.148,0.121-0.269,0.27-0.269c0.149,0,0.27,0.121,0.27,0.269
				C7.618,3.887,7.497,4.008,7.349,4.008z M17.695,2.464c-0.706,0-1.277,0.571-1.277,1.275c0,0.704,0.571,1.274,1.277,1.274
				c0.706,0,1.277-0.57,1.277-1.274C18.972,3.035,18.401,2.464,17.695,2.464z M17.695,4.008c-0.149,0-0.27-0.12-0.27-0.269
				c0-0.148,0.121-0.269,0.27-0.269c0.149,0,0.27,0.121,0.27,0.269C17.965,3.887,17.844,4.008,17.695,4.008z M15.126,11.874h0.265
				c0.274,0,0.495-0.226,0.495-0.504v-0.269c0-0.278-0.222-0.504-0.495-0.504h-0.265c-0.274,0-0.495,0.226-0.495,0.504v0.269
				C14.63,11.648,14.852,11.874,15.126,11.874z M17.726,11.874h0.265c0.274,0,0.495-0.226,0.495-0.504v-0.269
				c0-0.278-0.222-0.504-0.495-0.504h-0.265c-0.274,0-0.495,0.226-0.495,0.504v0.269C17.231,11.648,17.453,11.874,17.726,11.874z
				 M20.325,11.874h0.265c0.274,0,0.495-0.226,0.495-0.504v-0.269c0-0.278-0.222-0.504-0.495-0.504h-0.265
				c-0.274,0-0.495,0.226-0.495,0.504v0.269C19.83,11.648,20.052,11.874,20.325,11.874z M4.727,14.828h0.265
				c0.274,0,0.496-0.226,0.496-0.504v-0.269c0-0.278-0.222-0.504-0.496-0.504H4.727c-0.274,0-0.495,0.226-0.495,0.504v0.269
				C4.232,14.602,4.454,14.828,4.727,14.828z M7.327,14.828h0.266c0.273,0,0.495-0.226,0.495-0.504v-0.269
				c0-0.278-0.222-0.504-0.495-0.504H7.327c-0.273,0-0.495,0.226-0.495,0.504v0.269C6.832,14.602,7.054,14.828,7.327,14.828z
				 M9.927,14.828h0.265c0.273,0,0.495-0.226,0.495-0.504v-0.269c0-0.278-0.222-0.504-0.495-0.504H9.927
				c-0.274,0-0.496,0.226-0.496,0.504v0.269C9.431,14.602,9.653,14.828,9.927,14.828z M12.527,14.828h0.265
				c0.274,0,0.495-0.226,0.495-0.504v-0.269c0-0.278-0.222-0.504-0.495-0.504h-0.265c-0.274,0-0.495,0.226-0.495,0.504v0.269
				C12.031,14.602,12.253,14.828,12.527,14.828z M15.126,14.828h0.265c0.274,0,0.495-0.226,0.495-0.504v-0.269
				c0-0.278-0.222-0.504-0.495-0.504h-0.265c-0.274,0-0.495,0.226-0.495,0.504v0.269C14.63,14.602,14.852,14.828,15.126,14.828z
				 M17.726,14.828h0.265c0.274,0,0.495-0.226,0.495-0.504v-0.269c0-0.278-0.222-0.504-0.495-0.504h-0.265
				c-0.274,0-0.495,0.226-0.495,0.504v0.269C17.231,14.602,17.453,14.828,17.726,14.828z M20.325,14.828h0.265
				c0.274,0,0.495-0.226,0.495-0.504v-0.269c0-0.278-0.222-0.504-0.495-0.504h-0.265c-0.274,0-0.495,0.226-0.495,0.504v0.269
				C19.83,14.602,20.052,14.828,20.325,14.828z M4.727,17.783h0.265c0.274,0,0.496-0.226,0.496-0.504V17.01
				c0-0.278-0.222-0.504-0.496-0.504H4.727c-0.274,0-0.495,0.226-0.495,0.504v0.269C4.232,17.557,4.454,17.783,4.727,17.783z
				 M7.327,17.783h0.266c0.273,0,0.495-0.226,0.495-0.504V17.01c0-0.278-0.222-0.504-0.495-0.504H7.327
				c-0.273,0-0.495,0.226-0.495,0.504v0.269C6.832,17.557,7.054,17.783,7.327,17.783z M9.927,17.783h0.265
				c0.273,0,0.495-0.226,0.495-0.504V17.01c0-0.278-0.222-0.504-0.495-0.504H9.927c-0.274,0-0.496,0.226-0.496,0.504v0.269
				C9.431,17.557,9.653,17.783,9.927,17.783z M12.527,17.783h0.265c0.274,0,0.495-0.226,0.495-0.504V17.01
				c0-0.278-0.222-0.504-0.495-0.504h-0.265c-0.274,0-0.495,0.226-0.495,0.504v0.269C12.031,17.557,12.253,17.783,12.527,17.783z
				 M15.126,17.783h0.265c0.274,0,0.495-0.226,0.495-0.504V17.01c0-0.278-0.222-0.504-0.495-0.504h-0.265
				c-0.274,0-0.495,0.226-0.495,0.504v0.269C14.63,17.557,14.852,17.783,15.126,17.783z M17.726,17.783h0.265
				c0.274,0,0.495-0.226,0.495-0.504V17.01c0-0.278-0.222-0.504-0.495-0.504h-0.265c-0.274,0-0.495,0.226-0.495,0.504v0.269
				C17.231,17.557,17.453,17.783,17.726,17.783z M20.325,17.783h0.265c0.274,0,0.495-0.226,0.495-0.504V17.01
				c0-0.278-0.222-0.504-0.495-0.504h-0.265c-0.274,0-0.495,0.226-0.495,0.504v0.269C19.83,17.557,20.052,17.783,20.325,17.783z
				 M4.727,20.737h0.265c0.274,0,0.496-0.226,0.496-0.504v-0.269c0-0.278-0.222-0.504-0.496-0.504H4.727
				c-0.274,0-0.495,0.226-0.495,0.504v0.269C4.232,20.511,4.454,20.737,4.727,20.737z M7.327,20.737h0.266
				c0.273,0,0.495-0.226,0.495-0.504v-0.269c0-0.278-0.222-0.504-0.495-0.504H7.327c-0.273,0-0.495,0.226-0.495,0.504v0.269
				C6.832,20.511,7.054,20.737,7.327,20.737z M9.927,20.737h0.265c0.273,0,0.495-0.226,0.495-0.504v-0.269
				c0-0.278-0.222-0.504-0.495-0.504H9.927c-0.274,0-0.496,0.226-0.496,0.504v0.269C9.431,20.511,9.653,20.737,9.927,20.737z
				 M12.527,20.737h0.265c0.274,0,0.495-0.226,0.495-0.504v-0.269c0-0.278-0.222-0.504-0.495-0.504h-0.265
				c-0.274,0-0.495,0.226-0.495,0.504v0.269C12.031,20.511,12.253,20.737,12.527,20.737z M15.126,20.737h0.265
				c0.274,0,0.495-0.226,0.495-0.504v-0.269c0-0.278-0.222-0.504-0.495-0.504h-0.265c-0.274,0-0.495,0.226-0.495,0.504v0.269
				C14.63,20.511,14.852,20.737,15.126,20.737z"/>
		</g>
	</g>
</g>
<g id="Layer_2" display="none">
	<g display="inline">
		<path fill="#EA4C89" d="M12.5,1.116c2.294,0,4.259,0.854,5.897,2.563c1.637,1.708,2.456,3.765,2.456,6.17
			c0,1.218-0.245,2.512-0.736,3.88c-0.49,1.368-1.084,2.591-1.78,3.666c-0.696,1.076-1.392,2.069-2.088,2.978
			c-0.696,0.91-1.29,1.61-1.78,2.1l-0.736,0.736c-0.513,0.451-0.938,0.676-1.275,0.676c-0.006,0-0.012,0-0.018,0
			c-0.34-0.008-0.756-0.233-1.246-0.676c-0.19-0.19-0.443-0.451-0.759-0.783c-0.317-0.332-0.882-1.004-1.697-2.017
			c-0.815-1.012-1.531-2.025-2.147-3.037c-0.617-1.012-1.179-2.215-1.685-3.607C4.4,12.372,4.147,11.067,4.147,9.848
			c0-2.404,0.819-4.461,2.456-6.17C8.241,1.97,10.206,1.116,12.5,1.116 M12.5,13.407c1.092,0,2.025-0.383,2.8-1.151
			c0.775-0.767,1.163-1.697,1.163-2.788c0-1.092-0.388-2.025-1.163-2.8c-0.775-0.775-1.708-1.163-2.8-1.163
			c-1.092,0-2.021,0.388-2.788,1.163c-0.767,0.775-1.151,1.708-1.151,2.8c0,1.092,0.383,2.021,1.151,2.788
			C10.479,13.024,11.408,13.407,12.5,13.407 M12.5,0.116c-2.566,0-4.793,0.966-6.619,2.871C4.067,4.88,3.147,7.188,3.147,9.848
			c0,1.33,0.276,2.763,0.82,4.257c0.526,1.447,1.122,2.721,1.771,3.785c0.638,1.047,1.386,2.105,2.222,3.144
			c0.84,1.044,1.413,1.724,1.752,2.08c0.323,0.339,0.582,0.606,0.776,0.8l0.018,0.018l0.019,0.017c0.68,0.615,1.3,0.921,1.893,0.934
			c0.001,0,0.001,0,0.002,0c0.643,0,1.257-0.294,1.975-0.925l0.024-0.021l0.023-0.023l0.736-0.736
			c0.526-0.526,1.137-1.246,1.867-2.199c0.708-0.926,1.426-1.949,2.134-3.042c0.734-1.135,1.367-2.438,1.881-3.872
			c0.527-1.471,0.794-2.89,0.794-4.217c0-2.66-0.92-4.968-2.734-6.861C17.293,1.082,15.066,0.116,12.5,0.116L12.5,0.116z
			 M12.5,12.407c-0.823,0-1.504-0.281-2.081-0.858c-0.577-0.577-0.858-1.258-0.858-2.081c0-0.825,0.282-1.511,0.861-2.096
			C11,6.789,11.679,6.506,12.5,6.506c0.823,0,1.507,0.285,2.093,0.87c0.585,0.585,0.87,1.27,0.87,2.093
			c0,0.821-0.283,1.5-0.866,2.078C14.011,12.126,13.325,12.407,12.5,12.407L12.5,12.407z"/>
	</g>
</g>
</svg>
