<?xml version="1.0" encoding="utf-8"?>
<!-- Generator: Adobe Illustrator 17.0.2, SVG Export Plug-In . SVG Version: 6.00 Build 0)  -->
<!DOCTYPE svg PUBLIC "-//W3C//DTD SVG 1.1//EN" "http://www.w3.org/Graphics/SVG/1.1/DTD/svg11.dtd">
<svg version="1.1" xmlns="http://www.w3.org/2000/svg" xmlns:xlink="http://www.w3.org/1999/xlink" x="0px" y="0px" width="310px"
	 height="310px" viewBox="0 0 310 310" enable-background="new 0 0 310 310" xml:space="preserve">
<g id="Layer_1" display="none">
	<g display="inline">
		<g>
			<defs>
				<path id="SVGID_1_" d="M161.809,15.638c79.878,0,144.631,64.699,144.631,144.509s-64.754,144.509-144.631,144.509
					c-79.877,0-144.631-64.699-144.631-144.509S81.932,15.638,161.809,15.638L161.809,15.638z"/>
			</defs>
			<clipPath id="SVGID_2_">
				<use xlink:href="#SVGID_1_"  overflow="visible"/>
			</clipPath>
			<g clip-path="url(#SVGID_2_)">
				
					<image overflow="visible" width="1200" height="1200" xlink:href="6C5E2BF3A3059585.jpg"  transform="matrix(0.2596 0 0 0.2596 -0.7685 -1.1077)">
				</image>
			</g>
		</g>
		<g>
			<defs>
				<path id="SVGID_3_" d="M155,309.586c-85.468,0-155-69.44-155-154.793C0,69.44,69.533,0,155,0c85.467,0,155,69.44,155,154.793
					C310,240.146,240.467,309.586,155,309.586L155,309.586z M285.719,175.982c-4.529-1.428-40.979-12.284-82.467-5.652
					c17.316,47.522,24.364,86.226,25.72,94.269C258.675,244.543,279.819,212.771,285.719,175.982L285.719,175.982z M206.716,276.704
					c-1.969-11.6-9.656-52.028-28.244-100.265c-0.291,0.099-0.582,0.193-0.873,0.295c-74.675,25.986-101.481,77.703-103.864,82.567
					c22.448,17.481,50.659,27.911,81.265,27.911C173.34,287.212,190.82,283.466,206.716,276.704L206.716,276.704z M56.641,243.399
					c2.999-5.127,39.334-65.208,107.615-87.249c1.725-0.557,3.465-1.081,5.217-1.573c-3.324-7.511-6.944-15.031-10.734-22.438
					c-66.116,19.761-130.273,18.935-136.066,18.817c-0.041,1.342-0.068,2.688-0.068,4.04
					C22.606,188.953,35.496,219.959,56.641,243.399L56.641,243.399z M25.403,127.915c5.921,0.078,60.467,0.315,122.396-16.109
					C125.862,72.862,102.204,40.12,98.713,35.34C61.674,52.787,33.987,86.887,25.403,127.915L25.403,127.915z M123.975,26.453
					c3.659,4.894,27.705,37.595,49.4,77.402c47.078-17.622,67.008-44.373,69.389-47.76C219.383,35.379,188.64,22.778,155,22.778
					C144.318,22.778,133.931,24.057,123.975,26.453L123.975,26.453z M257.481,71.384c-2.791,3.77-24.977,32.173-73.927,52.132
					c3.08,6.298,6.034,12.703,8.783,19.151c0.974,2.285,1.923,4.559,2.852,6.823c44.053-5.532,87.824,3.334,92.189,4.256
					C287.087,122.538,275.921,93.883,257.481,71.384L257.481,71.384z"/>
			</defs>
			<clipPath id="SVGID_4_">
				<use xlink:href="#SVGID_3_"  overflow="visible"/>
			</clipPath>
			<g clip-path="url(#SVGID_4_)">
				
					<image overflow="visible" width="1200" height="1200" xlink:href="6C5E2BF3A3059584.jpg"  transform="matrix(0.2596 0 0 0.2596 -0.7685 -1.1077)">
				</image>
			</g>
		</g>
	</g>
	<g display="inline">
		<g>
			<defs>
				<path id="SVGID_5_" d="M525.143,15.638c79.878,0,144.631,64.699,144.631,144.509S605.02,304.657,525.143,304.657
					c-79.877,0-144.631-64.699-144.631-144.509S445.265,15.638,525.143,15.638L525.143,15.638z"/>
			</defs>
			<clipPath id="SVGID_6_">
				<use xlink:href="#SVGID_5_"  overflow="visible"/>
			</clipPath>
			<g clip-path="url(#SVGID_6_)">
				
					<image overflow="visible" width="1200" height="1200" xlink:href="6C5E2BF3A305958B.jpg"  transform="matrix(0.2596 0 0 0.2596 362.5648 -1.1077)">
				</image>
			</g>
		</g>
		<g>
			<defs>
				<path id="SVGID_7_" d="M518.334,309.586c-85.468,0-155-69.44-155-154.793C363.333,69.44,432.866,0,518.334,0
					c85.467,0,155,69.44,155,154.793C673.333,240.146,603.801,309.586,518.334,309.586L518.334,309.586z M649.053,175.982
					c-4.529-1.428-40.979-12.284-82.467-5.652c17.316,47.522,24.364,86.226,25.72,94.269
					C622.008,244.543,643.152,212.771,649.053,175.982L649.053,175.982z M570.049,276.704c-1.969-11.6-9.656-52.028-28.244-100.265
					c-0.291,0.099-0.582,0.193-0.873,0.295c-74.675,25.986-101.481,77.703-103.864,82.567
					c22.448,17.481,50.659,27.911,81.265,27.911C536.673,287.212,554.153,283.466,570.049,276.704L570.049,276.704z
					 M419.975,243.399c2.999-5.127,39.334-65.208,107.615-87.249c1.725-0.557,3.465-1.081,5.217-1.573
					c-3.324-7.511-6.944-15.031-10.734-22.438c-66.116,19.761-130.273,18.935-136.066,18.817c-0.041,1.342-0.068,2.688-0.068,4.04
					C385.939,188.953,398.829,219.959,419.975,243.399L419.975,243.399z M388.736,127.915c5.921,0.078,60.467,0.315,122.396-16.109
					c-21.937-38.943-45.596-71.685-49.086-76.466C425.007,52.787,397.321,86.887,388.736,127.915L388.736,127.915z M487.308,26.453
					c3.659,4.894,27.705,37.595,49.4,77.402c47.078-17.622,67.008-44.373,69.389-47.76c-23.38-20.715-54.124-33.317-87.763-33.317
					C507.651,22.778,497.264,24.057,487.308,26.453L487.308,26.453z M620.815,71.384c-2.791,3.77-24.977,32.173-73.927,52.132
					c3.08,6.298,6.034,12.703,8.783,19.151c0.974,2.285,1.923,4.559,2.852,6.823c44.053-5.532,87.824,3.334,92.189,4.256
					C650.42,122.538,639.254,93.883,620.815,71.384L620.815,71.384z"/>
			</defs>
			<clipPath id="SVGID_8_">
				<use xlink:href="#SVGID_7_"  overflow="visible"/>
			</clipPath>
			<g clip-path="url(#SVGID_8_)">
				
					<image overflow="visible" width="1200" height="1200" xlink:href="6C5E2BF3A305958C.jpg"  transform="matrix(0.2596 0 0 0.2596 362.5648 -1.1077)">
				</image>
			</g>
		</g>
	</g>
</g>
<g id="Layer_2">
	<circle fill-rule="evenodd" clip-rule="evenodd" fill="#EA4C89" cx="153.833" cy="153.833" r="153.833"/>
	
		<image display="none" overflow="visible" width="1200" height="1200" xlink:href="6C5E2BF3A305958D.jpg"  transform="matrix(0.2596 0 0 0.2596 -0.7685 -1.1077)">
	</image>
	<g>
		<g>
			<path fill="#C32361" d="M155,0C69.533,0,0,69.44,0,154.793c0,85.353,69.533,154.793,155,154.793c85.467,0,155-69.44,155-154.793
				C310,69.44,240.467,0,155,0z M257.481,71.384c18.439,22.499,29.606,51.155,29.897,82.362c-4.365-0.922-48.136-9.788-92.189-4.256
				c-0.928-2.264-1.878-4.538-2.852-6.823c-2.749-6.448-5.703-12.853-8.783-19.151C232.505,103.557,254.691,75.154,257.481,71.384z
				 M155,22.778c33.639,0,64.383,12.601,87.763,33.317c-2.381,3.387-22.311,30.139-69.389,47.76
				c-21.694-39.806-45.74-72.508-49.4-77.402C133.931,24.057,144.318,22.778,155,22.778z M98.714,35.34
				c3.49,4.78,27.149,37.522,49.086,76.466C85.87,128.23,31.324,127.993,25.403,127.915C33.987,86.887,61.674,52.787,98.714,35.34z
				 M22.606,154.995c0-1.352,0.027-2.698,0.068-4.04c5.792,0.118,69.949,0.944,136.066-18.817c3.79,7.407,7.41,14.927,10.734,22.438
				c-1.752,0.492-3.492,1.016-5.217,1.573C95.976,178.191,59.64,238.272,56.641,243.399
				C35.496,219.959,22.606,188.953,22.606,154.995z M155,287.212c-30.606,0-58.817-10.43-81.265-27.911
				c2.383-4.864,29.189-56.581,103.864-82.567c0.291-0.101,0.582-0.196,0.873-0.294c18.588,48.237,26.274,88.665,28.244,100.265
				C190.82,283.466,173.34,287.212,155,287.212z M228.973,264.599c-1.356-8.043-8.404-46.747-25.72-94.269
				c41.488-6.632,77.937,4.224,82.466,5.652C279.819,212.771,258.675,244.543,228.973,264.599z"/>
		</g>
	</g>
</g>
</svg>
