<?xml version="1.0" encoding="utf-8"?>
<!-- Generator: Adobe Illustrator 17.0.2, SVG Export Plug-In . SVG Version: 6.00 Build 0)  -->
<!DOCTYPE svg PUBLIC "-//W3C//DTD SVG 1.1//EN" "http://www.w3.org/Graphics/SVG/1.1/DTD/svg11.dtd">
<svg version="1.1" id="Layer_1" xmlns="http://www.w3.org/2000/svg" xmlns:xlink="http://www.w3.org/1999/xlink" x="0px" y="0px"
	 width="310px" height="310px" viewBox="0 0 310 310" enable-background="new 0 0 310 310" xml:space="preserve">
<g id="Layer_2">
	<circle fill="#EA4C89" cx="153.833" cy="153.833" r="153.833"/>
	<g>
		<g>
			<path fill="#C32361" d="M155,0C69.533,0,0,69.44,0,154.793s69.533,154.793,155,154.793s155-69.44,155-154.793S240.467,0,155,0z
				 M257.481,71.384c18.439,22.499,29.606,51.155,29.897,82.362c-4.365-0.922-48.136-9.788-92.189-4.256
				c-0.928-2.264-1.878-4.538-2.852-6.823c-2.749-6.448-5.703-12.853-8.783-19.151C232.505,103.557,254.691,75.154,257.481,71.384z
				 M155,22.778c33.639,0,64.383,12.601,87.763,33.317c-2.381,3.387-22.311,30.139-69.389,47.76
				c-21.694-39.806-45.74-72.508-49.4-77.402C133.931,24.057,144.318,22.778,155,22.778z M98.714,35.34
				c3.49,4.78,27.149,37.522,49.086,76.466C85.87,128.23,31.324,127.993,25.403,127.915C33.987,86.887,61.674,52.787,98.714,35.34z
				 M22.606,154.995c0-1.352,0.027-2.698,0.068-4.04c5.792,0.118,69.949,0.944,136.066-18.817c3.79,7.407,7.41,14.927,10.734,22.438
				c-1.752,0.492-3.492,1.016-5.217,1.573c-68.281,22.042-104.617,82.123-107.616,87.25
				C35.496,219.959,22.606,188.953,22.606,154.995z M155,287.212c-30.606,0-58.817-10.43-81.265-27.911
				c2.383-4.864,29.189-56.581,103.864-82.567c0.291-0.101,0.582-0.196,0.873-0.294c18.588,48.237,26.274,88.665,28.244,100.265
				C190.82,283.466,173.34,287.212,155,287.212z M228.973,264.599c-1.356-8.043-8.404-46.747-25.72-94.269
				c41.488-6.632,77.937,4.224,82.466,5.652C279.819,212.771,258.675,244.543,228.973,264.599z"/>
		</g>
	</g>
</g>
</svg>
