<?xml version="1.0" encoding="utf-8"?>
<!-- Generator: Adobe Illustrator 17.0.2, SVG Export Plug-In . SVG Version: 6.00 Build 0)  -->
<!DOCTYPE svg PUBLIC "-//W3C//DTD SVG 1.1//EN" "http://www.w3.org/Graphics/SVG/1.1/DTD/svg11.dtd">
<svg version="1.1" xmlns="http://www.w3.org/2000/svg" xmlns:xlink="http://www.w3.org/1999/xlink" x="0px" y="0px" width="226px"
	 height="226px" viewBox="0 0 226 226" enable-background="new 0 0 226 226" xml:space="preserve">
<g id="Layer_1" display="none">
	<g id="Hh7Gaq.tif" display="inline">
		<g>
			<path fill="#A0A0A0" d="M192,35c0,0.667,0,1.333,0,2c-0.858,1.384-0.482,2.922-0.483,4.388c-0.021,48.408-0.021,96.816,0,145.225
				c0.001,1.466-0.376,3.004,0.483,4.388c-0.488,0.948,1.145,2.604-1,3c-2.399-1.158-4.46-2.552-5.963-4.963
				c-6.48-10.397-14.892-18.228-27.7-19.883c-1.319-0.17-2.39-1.159-3.74-1.304c-4.712-1.595-9.554-2.509-14.525-2.785
				c-3.357-1.852-6.922-3.223-10.502-4.537c-2.746-1.008-4.608-2.646-4.691-5.728c-0.093-3.435-0.779-7.011,2.961-9.336
				c12.048-7.489,19.305-18.901,25.291-31.296c3.562-7.375,2.465-15.258,2.222-23.022c-0.046-1.478-0.46-2.947-0.377-4.446
				c-1.268-5.677-3.75-10.852-6.618-15.865c-13.882-23.387-42.805-29.445-63.028-7.08c-1.72,1.902-4.059,3.534-4.53,6.392
				c-3.369,4.424-4.979,9.64-6.652,14.829c-1.195,8.548-1.906,16.999-0.018,25.642c2.421,11.086,7.873,19.921,17.081,26.471
				c3.406,2.423,6.256,5.437,9.078,8.468c5.51,5.918,3.743,12.448-3.891,14.864c-3.303,1.045-6.791,1.611-9.772,3.552
				c-6.578-0.36-12.758,1.7-19.037,3.168c-12.356,2.489-22.187,8.64-28.853,19.572c-1.102,1.808-2.535,4.412-5.201,1.405
				c-0.082-48.587-0.007-97.16-0.059-145.733C32.475,40.592,32.941,38.723,32,37c0-0.667,0-1.333,0-2
				c1.384-0.857,2.922-0.482,4.389-0.483c50.408-0.021,100.815-0.021,151.223,0C189.078,34.518,190.616,34.143,192,35z"/>
			<path fill="#767676" d="M140.124,164.068c2.821-3.309,5.734-0.366,8.573-0.05c1.935,0.215,3.87,0.776,5.427,2.123
				c3.981,3.973,3.543,9.368,4.603,14.284c0.557,2.583,0.828,5.21,1.247,7.815c0.363,2.254-0.07,4.269-1.975,5.761c-31,0-62,0-93,0
				c-0.674-0.719-1.688-1.337-1.779-2.322c-0.834-9.027-1.849-18.088,2.501-26.634c4.658-1.156,9.341-2.224,13.963-3.509
				c2.178-0.605,3.889-0.381,5.234,1.513c2.26-0.345,3.162,1.331,4.257,2.795c8.79,11.757,20.633,14.62,34.404,11.694
				c5.872-1.248,10.165-4.641,12.802-10.034C137.203,165.825,137.872,164.123,140.124,164.068z"/>
			<path fill="#E6E6E6" d="M65.722,165.044C65.481,174.696,65.241,184.348,65,194c-10.184,0-20.368,0.034-30.55-0.071
				c-0.734-0.008-2.399,1.279-2.45-0.929c0.958-1.215,0.045-3.284,1.873-4.102C40.627,175.79,50.951,167.448,65.722,165.044z"/>
			<path fill="#E6E6E6" d="M158,194c-1.292-9.287-2.583-18.573-3.875-27.86C172.458,167.431,182.8,179.298,191,194
				C180,194,169,194,158,194z"/>
			<path fill="#A7A7A7" d="M192,35c-53.333,0-106.667,0-160,0c-0.342-1.596,0.893-0.978,1.5-0.979c52.333-0.023,104.667-0.023,157,0
				C191.107,34.022,192.342,33.404,192,35z"/>
			<path fill="#A7A7A7" d="M33.873,188.898c-0.624,1.367-1.248,2.735-1.873,4.102c0-52,0-104,0-156
				c1.471,2.277,0.98,4.84,0.982,7.298c0.025,45.921,0.013,91.842,0.034,137.763C33.016,184.362,32.605,186.744,33.873,188.898z"/>
			<path fill="#A7A7A7" d="M192,191c-1.31-1.947-0.989-4.163-0.99-6.306c-0.013-47.129-0.013-94.258,0-141.388
				c0.001-2.143-0.32-4.359,0.99-6.306C192,88.333,192,139.667,192,191z"/>
			<path fill="#E6E6E6" d="M140.124,164.068c-3.2,11.175-10.739,16.664-23.438,16.898c-14.076,0.259-25.483-4.313-31.767-17.917
				c-0.065-2.135,1.276-2.772,3.1-3.161c2.602-0.555,5.177-1.264,7.729-2.021c4.627-1.371,6.038-6.65,2.534-10.08
				c-3.924-3.841-7.903-7.678-12.218-11.057c-13.575-10.629-16.952-25.262-16.562-41.367c0.092-3.8,1.003-7.579,1.538-11.368
				c2.577-1.505,5.444-1.391,8.262-1.399c15.641-0.045,31.288-0.278,46.922,0.093c7.965,0.189,15.921,1.032,23.909,0.998
				c2.2-0.009,4.339,0.322,5.797,2.286c5.623,26.543-6.84,45.297-26.552,60.646c-2.935,2.286-3.252,4.515-3.282,7.576
				c-0.033,3.461,2.72,3.634,4.863,4.771C134.044,160.602,138.403,159.996,140.124,164.068z"/>
			<path fill="#FEFEFE" d="M155.928,85.972c-26.512-0.66-53.025-1.26-79.549-1.024c-1.842,0.016-3.645-0.157-5.34-0.953
				c1.753-5.264,2.903-10.803,6.851-15.07c2.447-1.534,5.068-2.288,8.003-2.338c18.957-0.321,37.869,1.578,56.828,1.109
				c2.392-0.059,4.565,0.799,6.55,2.12C152.633,74.73,154.934,80.082,155.928,85.972z"/>
			<path fill="#E6E6E6" d="M149.272,69.816c-23.81,1.01-47.581-1.148-71.382-0.891c8.048-13.581,19.884-21.65,35.711-21.522
				C129.625,47.533,141.42,55.908,149.272,69.816z"/>
		</g>
	</g>
</g>
<g id="Layer_2">
	<rect fill="#F2F2F2" width="226" height="226"/>
	<path fill="#CCCCCC" d="M137.521,177.206c-7.123-0.584-10.742-8.4-5.138-14.589c3.654-4.035,10.122-8.988,14.225-12.128
		c0.452-0.337,0.9-0.647,1.343-0.997c1.441-1.103,2.382-1.819,2.414-1.946c0.001-0.004-0.025-0.003-0.032-0.008
		c14.779-12.888,24.319-33.182,24.319-56.028c0-38.861-28.023-70.373-61.652-70.517c-34.07,0.144-61.652,31.659-61.652,70.52
		c0,22.846,9.54,43.144,24.319,56.032c-0.006,0.005-0.033,0.011-0.032,0.016c0.032,0.127,0.973,0.858,2.414,1.961
		c0.443,0.35,0.892,0.691,1.343,1.028c4.102,3.14,10.57,8.155,14.225,12.19c5.605,6.188,1.985,13.881-5.138,14.465
		C-3.998,179.542-0.495,226-0.495,226H113h113.495C226.495,226,229.998,179.542,137.521,177.206z"/>
	<g>
		<path fill="#EA4C89" d="M163.501,51H62.379c-4.094,7-7.199,15-9.051,23h119.316C170.768,66,167.628,58,163.501,51z"/>
	</g>
	<g>
		<path fill="#999999" d="M153.319,178.363c-1.933,16.98-19.08,30.267-40.033,30.267c-20.977,0-38.042-13.317-39.942-30.325
			C62.725,179.243,54,180.838,46,182.898V226h67h67v-43.102C173,180.882,163.644,179.309,153.319,178.363z"/>
		<path fill="#999999" d="M0,226.495v-1.437C-1,225.977,0,226.495,0,226.495z"/>
		<path fill="#999999" d="M226,225.058v1.437C226,226.495,227,225.977,226,225.058z"/>
	</g>
</g>
</svg>
